<svg xmlns="http://www.w3.org/2000/svg" viewBox="0 0 72 72" role="img" aria-labelledby="title">
<title>Sehaj Jaap</title>
<defs>
  <linearGradient id="gold" x1="10" y1="8" x2="62" y2="64" gradientUnits="userSpaceOnUse">
    <stop stop-color="#F4D891"/>
    <stop offset=".48" stop-color="#D4A64B"/>
    <stop offset="1" stop-color="#A86F1F"/>
  </linearGradient>
</defs>
<circle cx="36" cy="36" r="30" fill="#153B42" stroke="url(#gold)" stroke-width="2"/>
<path d="M36 15c-7.4 8.6-11 16.2-11 23 0 8.8 4.3 15.7 11 21 6.7-5.3 11-12.2 11-21 0-6.8-3.6-14.4-11-23Z" fill="none" stroke="url(#gold)" stroke-width="2.8" stroke-linecap="round" stroke-linejoin="round"/>
<path d="M20 31c6.2 1.8 10.3 5.4 12.2 10.8M52 31c-6.2 1.8-10.3 5.4-12.2 10.8M27 57h18" fill="none" stroke="url(#gold)" stroke-width="2.8" stroke-linecap="round"/>
<circle cx="36" cy="36" r="4.7" fill="url(#gold)"/>
<path d="M36 22v9M36 41v10" stroke="url(#gold)" stroke-width="2.2" stroke-linecap="round"/>
</svg>